<?xml version="1.0" encoding="UTF-8"?>
<svg width="264px" height="280px" viewBox="0 0 264 280" version="1.1" xmlns="http://www.w3.org/2000/svg" xmlns:xlink="http://www.w3.org/1999/xlink">
    <title>dora</title>
    <defs>
        <path d="M100,0 C130.927946,-5.68137151e-15 156,25.072054 156,56 L156.000809,62.1660527 C161.675838,63.1185422 166,68.05429 166,74 L166,88 C166,94.0524166 161.519235,99.0582945 155.693975,99.8813638 C153.627928,119.686472 141.237929,136.421678 124.001014,144.610469 L124,163 L128,163 C167.764502,163 200,195.235498 200,235 L200,244 L0,244 L0,235 C-4.86974701e-15,195.235498 32.235498,163 72,163 L76,163 L75.9999836,144.610943 C58.7625487,136.422324 46.3721119,119.686854 44.3051107,99.8809698 C38.480765,99.0582945 34,94.0524166 34,88 L34,74 C34,68.053942 38.3246685,63.1179645 44.0001873,62.1658855 L44,56 C44,25.072054 69.072054,5.68137151e-15 100,0 Z" id="path-1"></path>
        <path d="M51,4.34762511 C51,20.6289957 73.1619049,33.8276544 100.5,33.8276544 C127.838095,33.8276544 150,20.6289957 150,4.34762511 C150,2.9853134 149.844841,1.6445843 149.544472,0.331363833 C178.784239,9.48792509 200,36.792221 200,69.0517235 L200,78 L0,78 L0,69.0517235 C1.05025327e-14,36.3970853 21.7386736,8.81978639 51.5337207,0.00212667408 C51.1821692,1.42070254 51,2.87149399 51,4.34762511 Z" id="path-3"></path>
        <path d="M14,14.0481187 C23.6099827,14.0481187 28,18.4994466 28,11.5617716 C28,4.62409673 21.7319865,0 14,0 C6.2680135,0 0,4.62409673 0,11.5617716 C0,18.4994466 4.39001726,14.0481187 14,14.0481187 Z" id="path-5"></path>
        <path d="M14,14.0481187 C23.6099827,14.0481187 28,18.4994466 28,11.5617716 C28,4.62409673 21.7319865,0 14,0 C6.2680135,0 0,4.62409673 0,11.5617716 C0,18.4994466 4.39001726,14.0481187 14,14.0481187 Z" id="path-7"></path>
        <rect id="path-9" x="0" y="0" width="264" height="280"></rect>
        <path d="M41,16 C48.9231015,6.50878211 68.6952966,0.550643437 93.0001685,1 C117.30504,1.44935656 137.861928,4.81215989 146.000169,15 C158.324059,30.4276364 186.085192,107.014914 186.000363,126 C185.904275,146.584067 176.97912,158.790559 168.256648,170.099684 L167.626587,170.915752 L167.626587,170.915752 L166.997991,171.729322 C166.579583,172.271009 166.162657,172.811449 165.748223,173.35148 L165.128569,174.161323 C164.408115,175.106025 163.696842,176.050755 163.000169,177 C152.721248,174.335052 135.145932,171.815843 117.000506,170.317477 L117.001014,161.610469 C135.920046,152.62255 149,133.338769 149,111 L149,111 L149,73 C149,71.6549229 148.952578,70.3209219 148.859314,68.9995777 L72.058097,69 L69.2529753,47.5561285 L65.3735517,69 L37.140686,68.9995777 C37.0474222,70.3209219 37,71.6549229 37,73 L37,73 L37,111 C37,133.339161 50.0804138,152.623228 68.9999836,161.610943 L69.0005583,170.317398 C50.8548508,171.815755 33.2791001,174.335005 23,177 C21.5071284,174.965904 19.9472188,172.952539 18.3735814,170.915752 L17.7435207,170.099684 C17.2180705,169.418411 16.6918849,168.733882 16.1669382,168.044461 L15.5377232,167.214703 C7.57840063,156.672045 0.087793995,144.848062 -0.000177961792,126 C-0.0850232975,107.014914 30.3189583,28.7950013 41,16 Z" id="path-11"></path>
    </defs>
    <g id="Introduction" stroke="none" stroke-width="1" fill="none" fill-rule="evenodd">
        <g id="Artboard" transform="translate(-172.000000, -212.000000)">
            <g id="dora" transform="translate(172.000000, 212.000000)">
                <g id="Body" transform="translate(32.000000, 36.000000)">
                    <mask id="mask-2" fill="white">
                        <use xlink:href="#path-1"></use>
                    </mask>
                    <use fill="#D0C6AC" xlink:href="#path-1"></use>
                    <g id="Group" mask="url(#mask-2)">
                        <g transform="translate(-32.000000, 0.000000)" id="ðŸŽ¨-Skin">
                            <rect id="Color" fill="#D08B5B" x="0" y="0" width="264" height="244"></rect>
                        </g>
                    </g>
                    <path d="M44,94 C44,124.927946 69.072054,150 100,150 C130.927946,150 156,124.927946 156,94 L156,94 L156,102 C156,132.927946 130.927946,158 100,158 C69.072054,158 44,132.927946 44,102 Z" id="Neck-Shadow" fill-opacity="0.100000001" fill="#000000" mask="url(#mask-2)"></path>
                </g>
                <g id="ðŸ‘”-Clothes" transform="translate(32.000000, 202.000000)">
                    <mask id="mask-4" fill="white">
                        <use xlink:href="#path-3"></use>
                    </mask>
                    <use id="Clothes" fill="#E6E6E6" xlink:href="#path-3"></use>
                    <g id="â†³-Color-Fabric" mask="url(#mask-4)" fill="#B33F92">
                        <g transform="translate(-32.000000, -32.000000)" id="ðŸ–Color">
                            <rect x="0" y="0" width="264" height="110"></rect>
                        </g>
                    </g>
                </g>
                <g id="Face" transform="translate(76.000000, 82.000000)">
                    <g id="Group" transform="translate(2.000000, 52.000000)" fill="#000000" fill-opacity="0.699999988">
                        <g id="Mouth">
                            <path d="M40,15 C40,22.7319865 46.2680135,29 54,29 L54,29 C61.7319865,29 68,22.7319865 68,15"></path>
                        </g>
                    </g>
                    <g id="Group" transform="translate(28.000000, 40.000000)" fill="#000000" fill-opacity="0.16">
                        <g id="Nose">
                            <path d="M16,8 C16,12.418278 21.372583,16 28,16 L28,16 C34.627417,16 40,12.418278 40,8"></path>
                        </g>
                    </g>
                    <g id="Eye" transform="translate(0.000000, 8.000000)">
                        <g transform="translate(16.000000, 13.000000)">
                            <mask id="mask-6" fill="white">
                                <use xlink:href="#path-5"></use>
                            </mask>
                            <use id="The-white-stuff" fill="#FFFFFF" xlink:href="#path-5"></use>
                            <circle fill-opacity="0.699999988" fill="#000000" mask="url(#mask-6)" cx="14" cy="10" r="6"></circle>
                        </g>
                        <g transform="translate(68.000000, 13.000000)">
                            <mask id="mask-8" fill="white">
                                <use xlink:href="#path-7"></use>
                            </mask>
                            <use id="Eyeball-Mask" fill="#FFFFFF" xlink:href="#path-7"></use>
                            <circle fill-opacity="0.699999988" fill="#000000" mask="url(#mask-8)" cx="14" cy="10" r="6"></circle>
                        </g>
                    </g>
                    <g id="Group" fill="#000000" fill-opacity="0.599999964" fill-rule="nonzero">
                        <g id="I-Browse" transform="translate(12.000000, 6.000000)">
                            <path d="M3.63024536,11.1585767 C7.54515501,5.64986673 18.2779197,2.56083721 27.5230268,4.83118046 C28.5957248,5.0946055 29.6788665,4.43856013 29.9422916,3.36586212 C30.2057166,2.2931641 29.5496712,1.21002236 28.4769732,0.94659732 C17.7403633,-1.69001789 5.31209962,1.88699832 0.369754639,8.84142326 C-0.270109626,9.74178291 -0.0589363917,10.9903811 0.84142326,11.6302454 C1.74178291,12.2701096 2.9903811,12.0589364 3.63024536,11.1585767 Z" id="Eyebrow"></path>
                            <path d="M61.6302454,11.1585767 C65.545155,5.64986673 76.2779197,2.56083721 85.5230268,4.83118046 C86.5957248,5.0946055 87.6788665,4.43856013 87.9422916,3.36586212 C88.2057166,2.2931641 87.5496712,1.21002236 86.4769732,0.94659732 C75.7403633,-1.69001789 63.3120996,1.88699832 58.3697546,8.84142326 C57.7298904,9.74178291 57.9410636,10.9903811 58.8414233,11.6302454 C59.7417829,12.2701096 60.9903811,12.0589364 61.6302454,11.1585767 Z" id="Eyebrow" transform="translate(73.000154, 6.039198) scale(-1, 1) translate(-73.000154, -6.039198) "></path>
                        </g>
                    </g>
                </g>
                <g id="Top">
                    <mask id="mask-10" fill="white">
                        <use xlink:href="#path-9"></use>
                    </mask>
                    <g id="Mask"></g>
                    <g id="Group" mask="url(#mask-10)">
                        <g transform="translate(-1.000000, 0.000000)">
                            <path d="M69.0330562,76.212888 C81.9708809,43.1292208 95.6458945,26.5873873 110.058097,26.5873873 C110.596882,26.5873873 139.311316,26.3494141 158.112657,26.226792 C178.767149,35.5853581 193,55.3036503 193,78.114622 L193,93 L110.058097,93 L107.252975,69.820435 L103.373552,93 L69,93 L69,78.114622 C69,77.478246 69.0110772,76.844277 69.0330621,76.2128728 L69.0330562,76.212888 Z" id="Shadow" fill-opacity="0.16" fill="#000000"></path>
                            <g id="Hair" transform="translate(40.000000, 19.000000)">
                                <mask id="mask-12" fill="white">
                                    <use xlink:href="#path-11"></use>
                                </mask>
                                <use id="Combined-Shape" fill="#E6E6E6" xlink:href="#path-11"></use>
                                <g id="Group" mask="url(#mask-12)">
                                    <g transform="translate(-40.000000, -19.000000)" id="â†³-ðŸ’ˆHair-Color">
                                        <rect id="Color" fill="#2C1B18" x="0" y="0" width="266" height="280"></rect>
                                    </g>
                                </g>
                            </g>
                        </g>
                    </g>
                </g>
            </g>
        </g>
    </g>
</svg>